<svg width="104" height="25" viewBox="0 0 104 25" fill="none" xmlns="http://www.w3.org/2000/svg">
<path d="M39.824 20.192C39.584 20.192 39.352 20.184 39.128 20.168C38.904 20.1573 38.6667 20.1307 38.416 20.088C38.1707 20.0507 37.8933 19.9947 37.584 19.92C37.6853 19.7333 37.8053 19.568 37.944 19.424C38.088 19.2747 38.2533 19.1627 38.44 19.088C38.632 19.0133 38.848 18.9867 39.088 19.008C39.2587 19.024 39.3893 19.0347 39.48 19.04C39.5707 19.04 39.68 19.04 39.808 19.04C40.32 19.04 40.7973 18.912 41.24 18.656C41.6827 18.4 42.0693 18.048 42.4 17.6C42.7307 17.152 42.9893 16.6347 43.176 16.048C43.3627 15.456 43.456 14.8267 43.456 14.16C43.456 13.1307 43.28 12.256 42.928 11.536C42.5813 10.816 42.0587 10.2693 41.36 9.896C40.6613 9.51733 39.7867 9.328 38.736 9.328C38.416 9.328 38.1013 9.33867 37.792 9.36C37.4827 9.38133 37.2 9.408 36.944 9.44V20H35.424V8.544C35.9307 8.42133 36.4933 8.328 37.112 8.264C37.7307 8.19467 38.272 8.16 38.736 8.16C40.0907 8.16 41.24 8.4 42.184 8.88C43.1333 9.36 43.8533 10.048 44.344 10.944C44.84 11.84 45.088 12.912 45.088 14.16C45.088 15.0293 44.9493 15.832 44.672 16.568C44.3947 17.304 44.0107 17.944 43.52 18.488C43.0347 19.0267 42.4747 19.4453 41.84 19.744C41.2107 20.0427 40.5387 20.192 39.824 20.192ZM50.1743 20.16C49.5876 20.16 49.0543 20.0507 48.5743 19.832C48.0996 19.6133 47.6916 19.3093 47.3503 18.92C47.0143 18.5253 46.7556 18.064 46.5743 17.536C46.3929 17.0027 46.3023 16.4213 46.3023 15.792C46.3023 14.928 46.4596 14.1813 46.7743 13.552C47.0943 12.9173 47.5476 12.4293 48.1343 12.088C48.7209 11.7413 49.4169 11.568 50.2223 11.568C50.7716 11.568 51.2569 11.6907 51.6783 11.936C52.0996 12.176 52.4383 12.5067 52.6943 12.928C52.9556 13.344 53.1156 13.8187 53.1743 14.352C53.2383 14.88 53.1823 15.4293 53.0063 16H48.3663C48.4783 15.696 48.6356 15.4427 48.8383 15.24C49.0463 15.032 49.3423 14.928 49.7263 14.928H51.7583C51.8063 14.5173 51.7583 14.1467 51.6143 13.816C51.4756 13.48 51.2676 13.2133 50.9903 13.016C50.7183 12.8187 50.4089 12.72 50.0623 12.72C49.6143 12.72 49.2196 12.84 48.8783 13.08C48.5369 13.32 48.2703 13.672 48.0783 14.136C47.8863 14.5947 47.7903 15.152 47.7903 15.808C47.7903 16.4427 47.8996 17 48.1183 17.48C48.3423 17.96 48.6463 18.336 49.0303 18.608C49.4143 18.8747 49.8489 19.008 50.3343 19.008C50.7023 19.008 51.0516 18.9707 51.3823 18.896C51.7129 18.816 52.1049 18.6613 52.5583 18.432L52.9583 19.488C52.4463 19.7493 51.9503 19.9253 51.4703 20.016C50.9903 20.112 50.5583 20.16 50.1743 20.16ZM57.4694 20L54.3654 11.728H55.9654L58.1734 18.176L58.3014 18.576L58.4134 18.176L60.6054 11.728H62.1414L59.0374 20H57.4694ZM66.6314 20.192C66.178 20.192 65.6447 20.136 65.0314 20.024C64.4234 19.9173 63.8474 19.7333 63.3034 19.472L63.7194 18.432C64.1994 18.6453 64.682 18.8 65.1674 18.896C65.658 18.992 66.0874 19.04 66.4554 19.04C67.2074 19.04 67.7914 18.8507 68.2074 18.472C68.6287 18.088 68.8394 17.6213 68.8394 17.072C68.8394 16.6133 68.7087 16.2293 68.4474 15.92C68.1914 15.6107 67.858 15.336 67.4474 15.096C67.042 14.856 66.61 14.6213 66.1514 14.392C65.6927 14.1627 65.258 13.904 64.8474 13.616C64.442 13.328 64.1087 12.9813 63.8474 12.576C63.5914 12.1653 63.4634 11.6587 63.4634 11.056C63.4634 10.5227 63.5994 10.0373 63.8714 9.6C64.1434 9.16267 64.522 8.81333 65.0074 8.552C65.4927 8.29067 66.0554 8.16 66.6954 8.16C67.154 8.16 67.6154 8.19733 68.0794 8.272C68.5434 8.34667 69.0474 8.46933 69.5914 8.64L69.1594 9.68C68.706 9.54133 68.282 9.448 67.8874 9.4C67.498 9.352 67.154 9.328 66.8554 9.328C66.258 9.328 65.7994 9.50133 65.4794 9.848C65.1594 10.1893 64.9994 10.592 64.9994 11.056C64.9994 11.472 65.13 11.8293 65.3914 12.128C65.6527 12.4267 65.9887 12.696 66.3994 12.936C66.81 13.176 67.2474 13.4187 67.7114 13.664C68.1754 13.904 68.6127 14.176 69.0234 14.48C69.434 14.7787 69.77 15.1387 70.0314 15.56C70.2927 15.9813 70.4234 16.496 70.4234 17.104C70.4234 17.632 70.2767 18.1307 69.9834 18.6C69.69 19.0693 69.2607 19.4533 68.6954 19.752C68.13 20.0453 67.442 20.192 66.6314 20.192ZM72.5468 20V7.872H74.0348V20H72.5468ZM77.7148 20V13.984C77.7148 13.616 77.6428 13.3147 77.4988 13.08C77.3601 12.84 77.1334 12.72 76.8188 12.72C76.6908 12.72 76.5841 12.7333 76.4988 12.76C76.4188 12.7867 76.3068 12.816 76.1628 12.848C75.8534 12.9173 75.5708 12.92 75.3148 12.856C75.0588 12.792 74.8188 12.6453 74.5948 12.416C75.1654 12.08 75.6374 11.856 76.0108 11.744C76.3841 11.6267 76.7174 11.568 77.0108 11.568C77.4214 11.568 77.7948 11.6453 78.1308 11.8C78.4721 11.9547 78.7441 12.2187 78.9468 12.592C79.1494 12.9653 79.2508 13.4827 79.2508 14.144V20H77.7148ZM85.0273 20.16C84.3126 20.16 83.6619 19.9947 83.0753 19.664C82.4939 19.3333 82.0299 18.848 81.6833 18.208C81.3419 17.568 81.1713 16.784 81.1713 15.856C81.1713 15.1253 81.2806 14.4907 81.4993 13.952C81.7233 13.4133 82.0193 12.968 82.3873 12.616C82.7606 12.264 83.1766 12.0027 83.6353 11.832C84.0939 11.656 84.5579 11.568 85.0273 11.568C85.8433 11.568 86.5393 11.76 87.1153 12.144C87.6913 12.5227 88.1286 13.0373 88.4273 13.688C88.7313 14.3333 88.8833 15.056 88.8833 15.856C88.8833 16.5493 88.7793 17.1653 88.5712 17.704C88.3686 18.2373 88.0886 18.688 87.7313 19.056C87.3739 19.4187 86.9633 19.6933 86.4993 19.88C86.0353 20.0667 85.5446 20.16 85.0273 20.16ZM85.0273 19.008C85.5446 19.008 85.9713 18.864 86.3073 18.576C86.6433 18.288 86.8913 17.9067 87.0513 17.432C87.2166 16.952 87.2993 16.4267 87.2993 15.856C87.2993 15.1413 87.1926 14.552 86.9793 14.088C86.7713 13.624 86.4939 13.28 86.1473 13.056C85.8059 12.832 85.4326 12.72 85.0273 12.72C84.6219 12.72 84.2459 12.832 83.8993 13.056C83.5579 13.28 83.2806 13.624 83.0673 14.088C82.8593 14.552 82.7553 15.1413 82.7553 15.856C82.7553 16.784 82.9526 17.5413 83.3473 18.128C83.7419 18.7147 84.3019 19.008 85.0273 19.008ZM93.9298 20.176C93.0604 20.176 92.3911 19.8907 91.9218 19.32C91.4578 18.7493 91.2258 17.9573 91.2258 16.944V12.832H89.7538V12.112L91.2258 11.728V9.616L92.6338 9.168V17.12C92.6338 17.6693 92.7511 18.1307 92.9858 18.504C93.2258 18.872 93.5404 19.056 93.9298 19.056C94.1378 19.056 94.3378 19.0373 94.5298 19C94.7271 18.9627 94.9644 18.9013 95.2418 18.816L95.5938 19.824C95.1884 19.9573 94.8738 20.048 94.6498 20.096C94.4258 20.1493 94.1858 20.176 93.9298 20.176ZM94.5538 12.832C94.3031 12.832 94.0898 12.784 93.9138 12.688C93.7431 12.5867 93.5991 12.4533 93.4818 12.288C93.3698 12.1173 93.2791 11.9307 93.2098 11.728H95.4658V12.832H94.5538ZM99.9103 20.16C99.5049 20.16 99.0703 20.1227 98.6063 20.048C98.1476 19.9787 97.6063 19.792 96.9823 19.488L97.3663 18.432C97.7769 18.6293 98.1876 18.776 98.5983 18.872C99.0089 18.9627 99.3823 19.008 99.7183 19.008C100.198 19.008 100.556 18.896 100.79 18.672C101.025 18.448 101.142 18.16 101.142 17.808C101.142 17.5147 101.049 17.272 100.862 17.08C100.676 16.888 100.436 16.7173 100.142 16.568C99.8489 16.4187 99.5369 16.2693 99.2063 16.12C98.8756 15.9653 98.5636 15.7893 98.2703 15.592C97.9769 15.3893 97.7369 15.1387 97.5503 14.84C97.3636 14.5413 97.2703 14.1707 97.2703 13.728C97.2703 13.3867 97.3663 13.0533 97.5583 12.728C97.7556 12.3973 98.0436 12.1253 98.4223 11.912C98.8063 11.6933 99.2756 11.584 99.8303 11.584C100.134 11.584 100.468 11.6133 100.83 11.672C101.198 11.7307 101.606 11.84 102.054 12L101.686 13.04C101.35 12.928 101.038 12.848 100.75 12.8C100.468 12.7467 100.214 12.72 99.9903 12.72C99.6223 12.72 99.3156 12.8053 99.0703 12.976C98.8303 13.1467 98.7103 13.3973 98.7103 13.728C98.7103 14.0107 98.8036 14.248 98.9903 14.44C99.1769 14.632 99.4169 14.8027 99.7103 14.952C100.004 15.1013 100.316 15.256 100.646 15.416C100.977 15.5707 101.289 15.752 101.582 15.96C101.876 16.168 102.116 16.4267 102.302 16.736C102.489 17.04 102.582 17.424 102.582 17.888C102.582 18.2933 102.457 18.6693 102.206 19.016C101.956 19.3573 101.628 19.6347 101.222 19.848C100.817 20.056 100.38 20.16 99.9103 20.16Z" fill="#000535"/>
<rect x="5.57652" width="22.3059" height="20.9117" fill="#FBD300"/>
<path d="M31.4108 4.41432L27.7893 7.28023L27.7138 1.64648L31.4108 4.41432Z" fill="#000535"/>
<path d="M30.6977 4.40789L27.6008 6.85868L27.5363 2.04097L30.6977 4.40789Z" fill="white"/>
<rect y="13.4765" width="6.97058" height="0.929411" fill="#000535"/>
<rect x="2.09113" y="15.5677" width="6.97058" height="0.929411" fill="#000535"/>
<circle cx="21.6088" cy="5.11171" r="3.94999" fill="white"/>
<circle cx="21.6087" cy="5.11168" r="3.02058" fill="#000535"/>
</svg>
